<svg xmlns="http://www.w3.org/2000/svg" xmlns:xlink="http://www.w3.org/1999/xlink" width="500" zoomAndPan="magnify" viewBox="0 0 375 374.999991" height="500" preserveAspectRatio="xMidYMid meet" version="1.0"><defs><g/><clipPath id="id1"><path d="M 67.203125 67.203125 L 307.953125 67.203125 L 307.953125 307.953125 L 67.203125 307.953125 Z M 67.203125 67.203125 " clip-rule="nonzero"/></clipPath><clipPath id="id2"><path d="M 112.5 112.5 L 262.5 112.5 L 262.5 262.5 L 112.5 262.5 Z M 112.5 112.5 " clip-rule="nonzero"/></clipPath></defs><rect x="-37.5" width="450" fill="#ffffff" y="-37.499999" height="449.999989" fill-opacity="1"/><rect x="-37.5" width="450" fill="#ffffff" y="-37.499999" height="449.999989" fill-opacity="1"/><rect x="-37.5" width="450" fill="#ffffff" y="-37.499999" height="449.999989" fill-opacity="1"/><g clip-path="url(#id1)"><path fill="#021a48" d="M 307.949219 187.570312 C 307.949219 189.542969 307.898438 191.511719 307.804688 193.476562 C 307.707031 195.445312 307.5625 197.410156 307.367188 199.371094 C 307.175781 201.332031 306.933594 203.285156 306.644531 205.234375 C 306.355469 207.183594 306.019531 209.125 305.636719 211.054688 C 305.25 212.988281 304.820312 214.910156 304.339844 216.820312 C 303.863281 218.730469 303.335938 220.628906 302.765625 222.515625 C 302.191406 224.402344 301.574219 226.269531 300.910156 228.125 C 300.246094 229.980469 299.539062 231.816406 298.785156 233.636719 C 298.03125 235.457031 297.234375 237.257812 296.390625 239.039062 C 295.546875 240.820312 294.664062 242.578125 293.734375 244.316406 C 292.804688 246.054688 291.835938 247.769531 290.820312 249.457031 C 289.808594 251.148438 288.753906 252.8125 287.660156 254.449219 C 286.566406 256.089844 285.433594 257.699219 284.257812 259.28125 C 283.085938 260.863281 281.875 262.414062 280.625 263.9375 C 279.375 265.460938 278.085938 266.953125 276.765625 268.414062 C 275.441406 269.871094 274.082031 271.296875 272.691406 272.691406 C 271.296875 274.085938 269.871094 275.441406 268.410156 276.765625 C 266.953125 278.089844 265.460938 279.375 263.9375 280.625 C 262.414062 281.875 260.863281 283.085938 259.28125 284.261719 C 257.695312 285.433594 256.085938 286.566406 254.449219 287.660156 C 252.8125 288.757812 251.148438 289.808594 249.457031 290.824219 C 247.765625 291.835938 246.054688 292.804688 244.316406 293.734375 C 242.578125 294.664062 240.820312 295.550781 239.039062 296.390625 C 237.257812 297.234375 235.457031 298.03125 233.636719 298.785156 C 231.816406 299.539062 229.980469 300.25 228.125 300.914062 C 226.269531 301.574219 224.398438 302.195312 222.515625 302.765625 C 220.628906 303.335938 218.730469 303.863281 216.820312 304.339844 C 214.910156 304.820312 212.988281 305.25 211.054688 305.636719 C 209.125 306.019531 207.183594 306.355469 205.234375 306.644531 C 203.285156 306.933594 201.332031 307.175781 199.371094 307.371094 C 197.410156 307.5625 195.445312 307.707031 193.476562 307.804688 C 191.511719 307.902344 189.539062 307.949219 187.570312 307.949219 C 185.601562 307.949219 183.632812 307.902344 181.664062 307.804688 C 179.695312 307.707031 177.730469 307.5625 175.773438 307.371094 C 173.8125 307.175781 171.855469 306.933594 169.90625 306.644531 C 167.960938 306.355469 166.019531 306.019531 164.085938 305.636719 C 162.152344 305.25 160.234375 304.820312 158.320312 304.339844 C 156.410156 303.863281 154.511719 303.335938 152.628906 302.765625 C 150.742188 302.195312 148.871094 301.574219 147.015625 300.914062 C 145.160156 300.25 143.324219 299.539062 141.503906 298.785156 C 139.683594 298.03125 137.882812 297.234375 136.101562 296.390625 C 134.320312 295.550781 132.5625 294.664062 130.824219 293.734375 C 129.089844 292.804688 127.375 291.835938 125.683594 290.824219 C 123.996094 289.808594 122.332031 288.757812 120.691406 287.660156 C 119.054688 286.566406 117.445312 285.433594 115.863281 284.261719 C 114.28125 283.085938 112.726562 281.875 111.203125 280.625 C 109.679688 279.375 108.191406 278.089844 106.730469 276.765625 C 105.269531 275.441406 103.84375 274.085938 102.453125 272.691406 C 101.058594 271.296875 99.699219 269.871094 98.378906 268.414062 C 97.054688 266.953125 95.769531 265.460938 94.519531 263.9375 C 93.269531 262.414062 92.054688 260.863281 90.882812 259.28125 C 89.710938 257.699219 88.574219 256.089844 87.480469 254.449219 C 86.386719 252.8125 85.332031 251.148438 84.320312 249.457031 C 83.308594 247.769531 82.335938 246.054688 81.40625 244.316406 C 80.480469 242.578125 79.59375 240.820312 78.75 239.039062 C 77.910156 237.257812 77.109375 235.457031 76.355469 233.636719 C 75.601562 231.816406 74.894531 229.980469 74.230469 228.125 C 73.566406 226.269531 72.949219 224.402344 72.375 222.515625 C 71.804688 220.628906 71.28125 218.730469 70.800781 216.820312 C 70.324219 214.910156 69.890625 212.988281 69.507812 211.054688 C 69.121094 209.125 68.785156 207.183594 68.496094 205.234375 C 68.207031 203.285156 67.964844 201.332031 67.773438 199.371094 C 67.578125 197.410156 67.433594 195.445312 67.339844 193.476562 C 67.242188 191.511719 67.195312 189.542969 67.195312 187.570312 C 67.195312 185.601562 67.242188 183.632812 67.339844 181.664062 C 67.433594 179.699219 67.578125 177.734375 67.773438 175.773438 C 67.964844 173.8125 68.207031 171.859375 68.496094 169.910156 C 68.785156 167.960938 69.121094 166.019531 69.507812 164.085938 C 69.890625 162.15625 70.324219 160.234375 70.800781 158.324219 C 71.28125 156.410156 71.804688 154.511719 72.375 152.628906 C 72.949219 150.742188 73.566406 148.871094 74.230469 147.019531 C 74.894531 145.164062 75.601562 143.324219 76.355469 141.503906 C 77.109375 139.683594 77.910156 137.886719 78.75 136.105469 C 79.59375 134.324219 80.480469 132.5625 81.40625 130.828125 C 82.335938 129.089844 83.308594 127.375 84.320312 125.683594 C 85.332031 123.996094 86.386719 122.332031 87.480469 120.695312 C 88.574219 119.054688 89.710938 117.445312 90.882812 115.863281 C 92.054688 114.28125 93.269531 112.726562 94.519531 111.207031 C 95.769531 109.683594 97.054688 108.191406 98.378906 106.730469 C 99.699219 105.273438 101.058594 103.84375 102.453125 102.453125 C 103.84375 101.058594 105.269531 99.699219 106.730469 98.378906 C 108.191406 97.054688 109.679688 95.769531 111.203125 94.519531 C 112.726562 93.269531 114.28125 92.058594 115.863281 90.882812 C 117.445312 89.710938 119.054688 88.578125 120.691406 87.480469 C 122.332031 86.386719 123.996094 85.332031 125.683594 84.320312 C 127.375 83.308594 129.089844 82.335938 130.824219 81.410156 C 132.5625 80.480469 134.320312 79.59375 136.101562 78.753906 C 137.882812 77.910156 139.683594 77.113281 141.503906 76.359375 C 143.324219 75.605469 145.160156 74.894531 147.015625 74.230469 C 148.871094 73.566406 150.742188 72.949219 152.628906 72.378906 C 154.511719 71.804688 156.410156 71.28125 158.320312 70.800781 C 160.234375 70.324219 162.152344 69.890625 164.085938 69.507812 C 166.019531 69.125 167.960938 68.785156 169.90625 68.496094 C 171.855469 68.207031 173.8125 67.96875 175.773438 67.773438 C 177.730469 67.582031 179.695312 67.4375 181.664062 67.339844 C 183.632812 67.242188 185.601562 67.195312 187.570312 67.195312 C 189.539062 67.195312 191.511719 67.242188 193.476562 67.339844 C 195.445312 67.4375 197.410156 67.582031 199.371094 67.773438 C 201.332031 67.96875 203.285156 68.207031 205.234375 68.496094 C 207.183594 68.785156 209.125 69.125 211.054688 69.507812 C 212.988281 69.890625 214.910156 70.324219 216.820312 70.800781 C 218.730469 71.28125 220.628906 71.804688 222.515625 72.378906 C 224.398438 72.949219 226.269531 73.566406 228.125 74.230469 C 229.980469 74.894531 231.816406 75.605469 233.636719 76.359375 C 235.457031 77.113281 237.257812 77.910156 239.039062 78.753906 C 240.820312 79.59375 242.578125 80.480469 244.316406 81.410156 C 246.054688 82.335938 247.765625 83.308594 249.457031 84.320312 C 251.148438 85.332031 252.8125 86.386719 254.449219 87.480469 C 256.085938 88.578125 257.695312 89.710938 259.28125 90.882812 C 260.863281 92.058594 262.414062 93.269531 263.9375 94.519531 C 265.460938 95.769531 266.953125 97.054688 268.410156 98.378906 C 269.871094 99.699219 271.296875 101.058594 272.691406 102.453125 C 274.082031 103.84375 275.441406 105.273438 276.765625 106.730469 C 278.085938 108.191406 279.375 109.683594 280.625 111.207031 C 281.875 112.726562 283.085938 114.28125 284.257812 115.863281 C 285.433594 117.445312 286.566406 119.054688 287.660156 120.695312 C 288.753906 122.332031 289.808594 123.996094 290.820312 125.683594 C 291.835938 127.375 292.804688 129.089844 293.734375 130.828125 C 294.664062 132.5625 295.546875 134.324219 296.390625 136.105469 C 297.234375 137.886719 298.03125 139.683594 298.785156 141.503906 C 299.539062 143.324219 300.246094 145.164062 300.910156 147.019531 C 301.574219 148.871094 302.191406 150.742188 302.765625 152.628906 C 303.335938 154.511719 303.863281 156.410156 304.339844 158.324219 C 304.820312 160.234375 305.25 162.15625 305.636719 164.085938 C 306.019531 166.019531 306.355469 167.960938 306.644531 169.910156 C 306.933594 171.859375 307.175781 173.8125 307.367188 175.773438 C 307.5625 177.734375 307.707031 179.699219 307.804688 181.664062 C 307.898438 183.632812 307.949219 185.601562 307.949219 187.570312 Z M 307.949219 187.570312 " fill-opacity="1" fill-rule="nonzero"/></g><path fill="#f7ecbf" d="M 299.449219 187.570312 C 299.449219 189.402344 299.40625 191.234375 299.316406 193.0625 C 299.226562 194.890625 299.089844 196.714844 298.910156 198.539062 C 298.734375 200.359375 298.507812 202.175781 298.238281 203.988281 C 297.972656 205.800781 297.65625 207.601562 297.300781 209.398438 C 296.945312 211.195312 296.542969 212.980469 296.097656 214.757812 C 295.652344 216.53125 295.164062 218.296875 294.632812 220.050781 C 294.101562 221.800781 293.527344 223.539062 292.910156 225.261719 C 292.292969 226.988281 291.636719 228.695312 290.933594 230.386719 C 290.234375 232.078125 289.492188 233.75 288.710938 235.40625 C 287.925781 237.0625 287.101562 238.695312 286.238281 240.3125 C 285.375 241.925781 284.476562 243.519531 283.535156 245.089844 C 282.59375 246.660156 281.613281 248.207031 280.59375 249.730469 C 279.578125 251.25 278.523438 252.746094 277.433594 254.21875 C 276.34375 255.6875 275.214844 257.132812 274.054688 258.546875 C 272.894531 259.964844 271.699219 261.347656 270.46875 262.707031 C 269.238281 264.0625 267.976562 265.386719 266.683594 266.683594 C 265.386719 267.976562 264.0625 269.238281 262.703125 270.46875 C 261.347656 271.699219 259.960938 272.894531 258.546875 274.054688 C 257.132812 275.21875 255.6875 276.34375 254.21875 277.433594 C 252.746094 278.523438 251.25 279.578125 249.726562 280.597656 C 248.207031 281.613281 246.660156 282.59375 245.089844 283.535156 C 243.519531 284.476562 241.925781 285.378906 240.3125 286.242188 C 238.695312 287.105469 237.0625 287.925781 235.40625 288.710938 C 233.75 289.492188 232.078125 290.234375 230.386719 290.933594 C 228.695312 291.636719 226.984375 292.292969 225.261719 292.910156 C 223.539062 293.527344 221.800781 294.101562 220.046875 294.632812 C 218.296875 295.164062 216.53125 295.652344 214.753906 296.097656 C 212.980469 296.542969 211.191406 296.945312 209.398438 297.300781 C 207.601562 297.660156 205.796875 297.972656 203.988281 298.242188 C 202.175781 298.507812 200.359375 298.734375 198.535156 298.914062 C 196.714844 299.09375 194.890625 299.226562 193.058594 299.316406 C 191.230469 299.40625 189.402344 299.453125 187.570312 299.453125 C 185.738281 299.453125 183.910156 299.40625 182.082031 299.316406 C 180.253906 299.226562 178.425781 299.09375 176.605469 298.914062 C 174.78125 298.734375 172.964844 298.507812 171.15625 298.242188 C 169.34375 297.972656 167.539062 297.660156 165.746094 297.300781 C 163.949219 296.945312 162.164062 296.542969 160.386719 296.097656 C 158.609375 295.652344 156.847656 295.164062 155.09375 294.632812 C 153.339844 294.101562 151.605469 293.527344 149.878906 292.910156 C 148.15625 292.292969 146.449219 291.636719 144.757812 290.933594 C 143.066406 290.234375 141.390625 289.492188 139.734375 288.710938 C 138.082031 287.925781 136.445312 287.105469 134.832031 286.242188 C 133.214844 285.378906 131.625 284.476562 130.054688 283.535156 C 128.484375 282.59375 126.9375 281.613281 125.414062 280.597656 C 123.890625 279.578125 122.394531 278.523438 120.925781 277.433594 C 119.453125 276.34375 118.011719 275.21875 116.59375 274.054688 C 115.179688 272.894531 113.792969 271.699219 112.4375 270.46875 C 111.082031 269.238281 109.753906 267.976562 108.460938 266.683594 C 107.164062 265.386719 105.902344 264.0625 104.671875 262.707031 C 103.445312 261.347656 102.25 259.964844 101.085938 258.546875 C 99.925781 257.132812 98.800781 255.6875 97.707031 254.21875 C 96.617188 252.746094 95.5625 251.25 94.546875 249.730469 C 93.527344 248.207031 92.550781 246.660156 91.609375 245.089844 C 90.667969 243.519531 89.765625 241.925781 88.902344 240.3125 C 88.039062 238.695312 87.214844 237.0625 86.433594 235.40625 C 85.648438 233.75 84.90625 232.078125 84.207031 230.386719 C 83.507812 228.695312 82.847656 226.988281 82.230469 225.261719 C 81.613281 223.539062 81.039062 221.800781 80.507812 220.050781 C 79.976562 218.296875 79.488281 216.53125 79.042969 214.757812 C 78.597656 212.980469 78.199219 211.195312 77.839844 209.398438 C 77.484375 207.601562 77.171875 205.800781 76.902344 203.988281 C 76.632812 202.175781 76.410156 200.359375 76.230469 198.539062 C 76.050781 196.714844 75.914062 194.890625 75.824219 193.0625 C 75.734375 191.234375 75.691406 189.402344 75.691406 187.570312 C 75.691406 185.742188 75.734375 183.910156 75.824219 182.082031 C 75.914062 180.253906 76.050781 178.429688 76.230469 176.605469 C 76.410156 174.785156 76.632812 172.96875 76.902344 171.15625 C 77.171875 169.34375 77.484375 167.539062 77.839844 165.746094 C 78.199219 163.949219 78.597656 162.164062 79.042969 160.386719 C 79.488281 158.609375 79.976562 156.847656 80.507812 155.09375 C 81.039062 153.34375 81.613281 151.605469 82.230469 149.878906 C 82.847656 148.15625 83.507812 146.449219 84.207031 144.757812 C 84.90625 143.066406 85.648438 141.390625 86.433594 139.738281 C 87.214844 138.082031 88.039062 136.445312 88.902344 134.832031 C 89.765625 133.21875 90.667969 131.625 91.609375 130.054688 C 92.550781 128.484375 93.527344 126.9375 94.546875 125.414062 C 95.5625 123.890625 96.617188 122.394531 97.707031 120.925781 C 98.800781 119.453125 99.925781 118.011719 101.085938 116.597656 C 102.25 115.179688 103.445312 113.792969 104.671875 112.4375 C 105.902344 111.082031 107.164062 109.753906 108.460938 108.460938 C 109.753906 107.167969 111.082031 105.902344 112.4375 104.675781 C 113.792969 103.445312 115.179688 102.25 116.59375 101.085938 C 118.011719 99.925781 119.453125 98.800781 120.925781 97.710938 C 122.394531 96.617188 123.890625 95.5625 125.414062 94.546875 C 126.9375 93.53125 128.484375 92.550781 130.054688 91.609375 C 131.625 90.667969 133.214844 89.765625 134.832031 88.902344 C 136.445312 88.039062 138.082031 87.214844 139.734375 86.433594 C 141.390625 85.652344 143.066406 84.910156 144.757812 84.207031 C 146.449219 83.507812 148.15625 82.847656 149.878906 82.230469 C 151.605469 81.613281 153.339844 81.042969 155.09375 80.507812 C 156.847656 79.976562 158.609375 79.488281 160.386719 79.042969 C 162.164062 78.601562 163.949219 78.199219 165.746094 77.839844 C 167.539062 77.484375 169.34375 77.171875 171.15625 76.902344 C 172.964844 76.632812 174.78125 76.410156 176.605469 76.230469 C 178.425781 76.050781 180.253906 75.917969 182.082031 75.828125 C 183.910156 75.738281 185.738281 75.691406 187.570312 75.691406 C 189.402344 75.691406 191.230469 75.738281 193.058594 75.828125 C 194.890625 75.917969 196.714844 76.050781 198.535156 76.230469 C 200.359375 76.410156 202.175781 76.632812 203.988281 76.902344 C 205.796875 77.171875 207.601562 77.484375 209.398438 77.839844 C 211.191406 78.199219 212.980469 78.601562 214.753906 79.042969 C 216.53125 79.488281 218.296875 79.976562 220.046875 80.507812 C 221.800781 81.042969 223.539062 81.613281 225.261719 82.230469 C 226.984375 82.847656 228.695312 83.507812 230.386719 84.207031 C 232.078125 84.910156 233.75 85.652344 235.40625 86.433594 C 237.0625 87.214844 238.695312 88.039062 240.3125 88.902344 C 241.925781 89.765625 243.519531 90.667969 245.089844 91.609375 C 246.660156 92.550781 248.207031 93.53125 249.726562 94.546875 C 251.25 95.5625 252.746094 96.617188 254.21875 97.710938 C 255.6875 98.800781 257.132812 99.925781 258.546875 101.085938 C 259.960938 102.25 261.347656 103.445312 262.703125 104.675781 C 264.0625 105.902344 265.386719 107.167969 266.683594 108.460938 C 267.976562 109.753906 269.238281 111.082031 270.46875 112.4375 C 271.699219 113.792969 272.894531 115.179688 274.054688 116.597656 C 275.214844 118.011719 276.34375 119.453125 277.433594 120.925781 C 278.523438 122.394531 279.578125 123.890625 280.59375 125.414062 C 281.613281 126.9375 282.59375 128.484375 283.535156 130.054688 C 284.476562 131.625 285.375 133.21875 286.238281 134.832031 C 287.101562 136.445312 287.925781 138.082031 288.710938 139.738281 C 289.492188 141.390625 290.234375 143.066406 290.933594 144.757812 C 291.636719 146.449219 292.292969 148.15625 292.910156 149.878906 C 293.527344 151.605469 294.101562 153.34375 294.632812 155.09375 C 295.164062 156.847656 295.652344 158.609375 296.097656 160.386719 C 296.542969 162.164062 296.945312 163.949219 297.300781 165.746094 C 297.65625 167.539062 297.972656 169.34375 298.238281 171.15625 C 298.507812 172.96875 298.734375 174.785156 298.910156 176.605469 C 299.089844 178.429688 299.226562 180.253906 299.316406 182.082031 C 299.40625 183.910156 299.449219 185.742188 299.449219 187.570312 Z M 299.449219 187.570312 " fill-opacity="1" fill-rule="nonzero"/><path fill="#f7ecbf" d="M 276.027344 187.570312 C 276.027344 189.019531 275.992188 190.464844 275.921875 191.914062 C 275.851562 193.359375 275.742188 194.800781 275.601562 196.242188 C 275.460938 197.683594 275.28125 199.117188 275.070312 200.550781 C 274.859375 201.984375 274.609375 203.410156 274.328125 204.828125 C 274.046875 206.25 273.726562 207.660156 273.375 209.066406 C 273.023438 210.46875 272.640625 211.863281 272.21875 213.25 C 271.796875 214.632812 271.34375 216.007812 270.855469 217.371094 C 270.367188 218.734375 269.847656 220.085938 269.292969 221.421875 C 268.738281 222.761719 268.152344 224.082031 267.535156 225.390625 C 266.914062 226.699219 266.265625 227.992188 265.582031 229.269531 C 264.898438 230.546875 264.1875 231.804688 263.441406 233.046875 C 262.699219 234.289062 261.925781 235.511719 261.121094 236.714844 C 260.316406 237.917969 259.480469 239.101562 258.621094 240.265625 C 257.757812 241.429688 256.867188 242.570312 255.949219 243.6875 C 255.03125 244.808594 254.085938 245.902344 253.113281 246.976562 C 252.140625 248.046875 251.144531 249.097656 250.117188 250.121094 C 249.09375 251.144531 248.046875 252.140625 246.972656 253.113281 C 245.902344 254.085938 244.804688 255.03125 243.6875 255.949219 C 242.566406 256.867188 241.425781 257.757812 240.265625 258.621094 C 239.101562 259.484375 237.917969 260.316406 236.714844 261.121094 C 235.511719 261.925781 234.289062 262.699219 233.046875 263.445312 C 231.804688 264.1875 230.546875 264.902344 229.269531 265.582031 C 227.992188 266.265625 226.699219 266.917969 225.390625 267.535156 C 224.082031 268.15625 222.757812 268.742188 221.421875 269.296875 C 220.085938 269.847656 218.734375 270.371094 217.371094 270.859375 C 216.007812 271.34375 214.632812 271.800781 213.25 272.21875 C 211.863281 272.640625 210.46875 273.027344 209.0625 273.378906 C 207.660156 273.730469 206.246094 274.046875 204.828125 274.328125 C 203.40625 274.609375 201.980469 274.859375 200.550781 275.070312 C 199.117188 275.285156 197.683594 275.460938 196.242188 275.601562 C 194.800781 275.746094 193.355469 275.851562 191.910156 275.921875 C 190.464844 275.992188 189.019531 276.027344 187.570312 276.027344 C 186.125 276.027344 184.675781 275.992188 183.230469 275.921875 C 181.785156 275.851562 180.339844 275.746094 178.902344 275.601562 C 177.460938 275.460938 176.023438 275.285156 174.589844 275.070312 C 173.160156 274.859375 171.734375 274.609375 170.3125 274.328125 C 168.894531 274.046875 167.480469 273.730469 166.078125 273.378906 C 164.671875 273.027344 163.277344 272.640625 161.894531 272.21875 C 160.507812 271.800781 159.132812 271.34375 157.769531 270.859375 C 156.40625 270.371094 155.058594 269.847656 153.71875 269.296875 C 152.382812 268.742188 151.058594 268.15625 149.75 267.535156 C 148.441406 266.917969 147.148438 266.265625 145.871094 265.582031 C 144.597656 264.902344 143.335938 264.1875 142.09375 263.445312 C 140.851562 262.699219 139.628906 261.925781 138.425781 261.121094 C 137.222656 260.316406 136.039062 259.484375 134.878906 258.621094 C 133.714844 257.757812 132.574219 256.867188 131.453125 255.949219 C 130.335938 255.03125 129.238281 254.085938 128.167969 253.113281 C 127.09375 252.140625 126.046875 251.144531 125.023438 250.121094 C 124 249.097656 123 248.046875 122.027344 246.976562 C 121.058594 245.902344 120.113281 244.808594 119.191406 243.6875 C 118.273438 242.570312 117.382812 241.429688 116.523438 240.265625 C 115.660156 239.101562 114.828125 237.917969 114.023438 236.714844 C 113.21875 235.511719 112.445312 234.289062 111.699219 233.046875 C 110.953125 231.804688 110.242188 230.546875 109.558594 229.269531 C 108.875 227.992188 108.226562 226.699219 107.605469 225.390625 C 106.988281 224.082031 106.402344 222.761719 105.847656 221.421875 C 105.292969 220.085938 104.773438 218.734375 104.285156 217.371094 C 103.796875 216.007812 103.34375 214.632812 102.921875 213.25 C 102.503906 211.863281 102.117188 210.46875 101.765625 209.066406 C 101.414062 207.660156 101.097656 206.25 100.8125 204.828125 C 100.53125 203.410156 100.285156 201.984375 100.070312 200.550781 C 99.859375 199.117188 99.683594 197.683594 99.539062 196.242188 C 99.398438 194.800781 99.292969 193.359375 99.222656 191.914062 C 99.148438 190.464844 99.113281 189.019531 99.113281 187.570312 C 99.113281 186.125 99.148438 184.675781 99.222656 183.230469 C 99.292969 181.785156 99.398438 180.34375 99.539062 178.902344 C 99.683594 177.460938 99.859375 176.023438 100.070312 174.59375 C 100.285156 173.160156 100.53125 171.734375 100.8125 170.316406 C 101.097656 168.894531 101.414062 167.484375 101.765625 166.078125 C 102.117188 164.675781 102.503906 163.28125 102.921875 161.894531 C 103.34375 160.507812 103.796875 159.136719 104.285156 157.773438 C 104.773438 156.410156 105.292969 155.058594 105.847656 153.722656 C 106.402344 152.382812 106.988281 151.058594 107.605469 149.75 C 108.226562 148.441406 108.875 147.152344 109.558594 145.875 C 110.242188 144.597656 110.953125 143.335938 111.699219 142.097656 C 112.445312 140.855469 113.21875 139.632812 114.023438 138.429688 C 114.828125 137.222656 115.660156 136.042969 116.523438 134.878906 C 117.382812 133.714844 118.273438 132.574219 119.191406 131.457031 C 120.113281 130.335938 121.058594 129.242188 122.027344 128.167969 C 123 127.09375 124 126.046875 125.023438 125.023438 C 126.046875 124 127.09375 123.003906 128.167969 122.03125 C 129.238281 121.058594 130.335938 120.113281 131.453125 119.195312 C 132.574219 118.277344 133.714844 117.386719 134.878906 116.523438 C 136.039062 115.660156 137.222656 114.828125 138.425781 114.023438 C 139.628906 113.21875 140.851562 112.445312 142.09375 111.699219 C 143.335938 110.957031 144.597656 110.242188 145.871094 109.558594 C 147.148438 108.878906 148.441406 108.226562 149.75 107.609375 C 151.058594 106.988281 152.382812 106.402344 153.71875 105.847656 C 155.058594 105.292969 156.40625 104.773438 157.769531 104.285156 C 159.132812 103.796875 160.507812 103.34375 161.894531 102.925781 C 163.277344 102.503906 164.671875 102.117188 166.078125 101.765625 C 167.480469 101.414062 168.894531 101.097656 170.3125 100.816406 C 171.734375 100.53125 173.160156 100.285156 174.589844 100.074219 C 176.023438 99.859375 177.460938 99.683594 178.902344 99.542969 C 180.339844 99.398438 181.785156 99.292969 183.230469 99.222656 C 184.675781 99.152344 186.125 99.117188 187.570312 99.117188 C 189.019531 99.117188 190.464844 99.152344 191.910156 99.222656 C 193.355469 99.292969 194.800781 99.398438 196.242188 99.542969 C 197.683594 99.683594 199.117188 99.859375 200.550781 100.074219 C 201.980469 100.285156 203.40625 100.53125 204.828125 100.816406 C 206.246094 101.097656 207.660156 101.414062 209.0625 101.765625 C 210.46875 102.117188 211.863281 102.503906 213.25 102.925781 C 214.632812 103.34375 216.007812 103.796875 217.371094 104.285156 C 218.734375 104.773438 220.085938 105.292969 221.421875 105.847656 C 222.757812 106.402344 224.082031 106.988281 225.390625 107.609375 C 226.699219 108.226562 227.992188 108.878906 229.269531 109.558594 C 230.546875 110.242188 231.804688 110.957031 233.046875 111.699219 C 234.289062 112.445312 235.511719 113.21875 236.714844 114.023438 C 237.917969 114.828125 239.101562 115.660156 240.265625 116.523438 C 241.425781 117.386719 242.566406 118.277344 243.6875 119.195312 C 244.804688 120.113281 245.902344 121.058594 246.976562 122.03125 C 248.046875 123.003906 249.09375 124 250.117188 125.023438 C 251.144531 126.046875 252.140625 127.09375 253.113281 128.167969 C 254.085938 129.242188 255.03125 130.335938 255.949219 131.457031 C 256.867188 132.574219 257.757812 133.714844 258.621094 134.878906 C 259.480469 136.042969 260.316406 137.222656 261.121094 138.429688 C 261.925781 139.632812 262.699219 140.855469 263.441406 142.097656 C 264.1875 143.335938 264.898438 144.597656 265.582031 145.875 C 266.265625 147.152344 266.914062 148.441406 267.535156 149.75 C 268.152344 151.058594 268.738281 152.382812 269.292969 153.722656 C 269.847656 155.058594 270.367188 156.410156 270.855469 157.773438 C 271.34375 159.136719 271.796875 160.507812 272.21875 161.894531 C 272.640625 163.28125 273.023438 164.675781 273.375 166.078125 C 273.726562 167.484375 274.046875 168.894531 274.328125 170.316406 C 274.609375 171.734375 274.859375 173.160156 275.070312 174.59375 C 275.28125 176.023438 275.460938 177.460938 275.601562 178.902344 C 275.742188 180.34375 275.851562 181.785156 275.921875 183.230469 C 275.992188 184.675781 276.027344 186.125 276.027344 187.570312 Z M 276.027344 187.570312 " fill-opacity="1" fill-rule="nonzero"/><path fill="#021a48" d="M 272.582031 187.570312 C 272.582031 188.964844 272.546875 190.351562 272.476562 191.742188 C 272.410156 193.132812 272.308594 194.519531 272.171875 195.902344 C 272.035156 197.289062 271.863281 198.667969 271.660156 200.046875 C 271.457031 201.421875 271.21875 202.792969 270.945312 204.15625 C 270.675781 205.519531 270.371094 206.878906 270.03125 208.226562 C 269.695312 209.578125 269.324219 210.917969 268.917969 212.25 C 268.515625 213.582031 268.078125 214.902344 267.609375 216.210938 C 267.140625 217.519531 266.640625 218.816406 266.109375 220.101562 C 265.578125 221.390625 265.011719 222.660156 264.417969 223.917969 C 263.824219 225.175781 263.199219 226.417969 262.542969 227.644531 C 261.886719 228.871094 261.199219 230.082031 260.484375 231.273438 C 259.769531 232.46875 259.027344 233.644531 258.253906 234.800781 C 257.480469 235.957031 256.679688 237.09375 255.851562 238.210938 C 255.023438 239.328125 254.167969 240.425781 253.285156 241.5 C 252.402344 242.578125 251.492188 243.628906 250.558594 244.660156 C 249.625 245.691406 248.664062 246.699219 247.679688 247.683594 C 246.699219 248.667969 245.691406 249.625 244.660156 250.558594 C 243.628906 251.492188 242.574219 252.402344 241.5 253.285156 C 240.425781 254.167969 239.328125 255.023438 238.210938 255.851562 C 237.09375 256.679688 235.957031 257.480469 234.800781 258.253906 C 233.644531 259.027344 232.46875 259.769531 231.273438 260.488281 C 230.082031 261.203125 228.871094 261.886719 227.644531 262.542969 C 226.417969 263.199219 225.175781 263.824219 223.917969 264.417969 C 222.660156 265.015625 221.386719 265.578125 220.101562 266.109375 C 218.816406 266.640625 217.519531 267.144531 216.210938 267.613281 C 214.898438 268.082031 213.578125 268.515625 212.246094 268.921875 C 210.917969 269.324219 209.574219 269.695312 208.226562 270.035156 C 206.875 270.371094 205.519531 270.675781 204.15625 270.949219 C 202.789062 271.21875 201.421875 271.457031 200.042969 271.660156 C 198.667969 271.863281 197.289062 272.035156 195.902344 272.171875 C 194.519531 272.308594 193.132812 272.410156 191.742188 272.480469 C 190.351562 272.546875 188.960938 272.582031 187.570312 272.582031 C 186.179688 272.582031 184.789062 272.546875 183.398438 272.480469 C 182.011719 272.410156 180.621094 272.308594 179.238281 272.171875 C 177.855469 272.035156 176.472656 271.863281 175.097656 271.660156 C 173.722656 271.457031 172.351562 271.21875 170.988281 270.949219 C 169.621094 270.675781 168.265625 270.371094 166.914062 270.035156 C 165.566406 269.695312 164.226562 269.324219 162.894531 268.921875 C 161.5625 268.515625 160.242188 268.082031 158.933594 267.613281 C 157.621094 267.144531 156.324219 266.640625 155.039062 266.109375 C 153.753906 265.578125 152.480469 265.015625 151.226562 264.417969 C 149.96875 263.824219 148.726562 263.199219 147.496094 262.542969 C 146.269531 261.886719 145.0625 261.203125 143.867188 260.488281 C 142.675781 259.769531 141.5 259.027344 140.34375 258.253906 C 139.183594 257.480469 138.046875 256.679688 136.929688 255.851562 C 135.8125 255.023438 134.71875 254.167969 133.640625 253.285156 C 132.566406 252.402344 131.511719 251.492188 130.480469 250.558594 C 129.453125 249.625 128.445312 248.667969 127.460938 247.683594 C 126.476562 246.699219 125.515625 245.691406 124.582031 244.660156 C 123.648438 243.628906 122.742188 242.578125 121.859375 241.5 C 120.976562 240.425781 120.121094 239.328125 119.289062 238.210938 C 118.460938 237.09375 117.660156 235.957031 116.886719 234.800781 C 116.117188 233.644531 115.371094 232.46875 114.65625 231.273438 C 113.941406 230.082031 113.253906 228.871094 112.597656 227.644531 C 111.945312 226.417969 111.316406 225.175781 110.722656 223.917969 C 110.128906 222.660156 109.566406 221.390625 109.03125 220.101562 C 108.5 218.816406 108 217.519531 107.53125 216.210938 C 107.0625 214.902344 106.625 213.582031 106.222656 212.25 C 105.816406 210.917969 105.445312 209.578125 105.109375 208.226562 C 104.769531 206.878906 104.464844 205.519531 104.195312 204.15625 C 103.921875 202.792969 103.6875 201.421875 103.480469 200.046875 C 103.277344 198.667969 103.105469 197.289062 102.972656 195.902344 C 102.835938 194.519531 102.730469 193.132812 102.664062 191.742188 C 102.59375 190.351562 102.5625 188.964844 102.5625 187.570312 C 102.5625 186.179688 102.59375 184.789062 102.664062 183.402344 C 102.730469 182.011719 102.835938 180.625 102.972656 179.238281 C 103.105469 177.855469 103.277344 176.472656 103.480469 175.097656 C 103.6875 173.722656 103.921875 172.351562 104.195312 170.988281 C 104.464844 169.621094 104.769531 168.265625 105.109375 166.917969 C 105.445312 165.566406 105.816406 164.226562 106.222656 162.894531 C 106.625 161.5625 107.0625 160.242188 107.53125 158.933594 C 108 157.625 108.5 156.324219 109.03125 155.039062 C 109.566406 153.753906 110.128906 152.484375 110.722656 151.226562 C 111.316406 149.96875 111.945312 148.726562 112.597656 147.5 C 113.253906 146.273438 113.941406 145.0625 114.65625 143.867188 C 115.371094 142.675781 116.117188 141.5 116.886719 140.34375 C 117.660156 139.1875 118.460938 138.050781 119.289062 136.933594 C 120.121094 135.8125 120.976562 134.71875 121.859375 133.640625 C 122.742188 132.566406 123.648438 131.515625 124.582031 130.484375 C 125.515625 129.453125 126.476562 128.445312 127.460938 127.460938 C 128.445312 126.476562 129.453125 125.519531 130.480469 124.585938 C 131.511719 123.648438 132.566406 122.742188 133.640625 121.859375 C 134.71875 120.976562 135.8125 120.121094 136.929688 119.292969 C 138.046875 118.464844 139.183594 117.664062 140.34375 116.890625 C 141.5 116.117188 142.675781 115.371094 143.867188 114.65625 C 145.0625 113.941406 146.269531 113.257812 147.496094 112.601562 C 148.726562 111.945312 149.96875 111.320312 151.226562 110.722656 C 152.480469 110.128906 153.753906 109.566406 155.039062 109.035156 C 156.324219 108.5 157.621094 108 158.933594 107.53125 C 160.242188 107.0625 161.5625 106.625 162.894531 106.222656 C 164.226562 105.820312 165.566406 105.449219 166.914062 105.109375 C 168.265625 104.773438 169.621094 104.46875 170.988281 104.195312 C 172.351562 103.925781 173.722656 103.6875 175.097656 103.484375 C 176.472656 103.277344 177.855469 103.109375 179.238281 102.972656 C 180.621094 102.835938 182.011719 102.734375 183.398438 102.664062 C 184.789062 102.597656 186.179688 102.5625 187.570312 102.5625 C 188.960938 102.5625 190.351562 102.597656 191.742188 102.664062 C 193.132812 102.734375 194.519531 102.835938 195.902344 102.972656 C 197.289062 103.109375 198.667969 103.277344 200.042969 103.484375 C 201.421875 103.6875 202.789062 103.925781 204.15625 104.195312 C 205.519531 104.46875 206.875 104.773438 208.226562 105.109375 C 209.574219 105.449219 210.917969 105.820312 212.246094 106.222656 C 213.578125 106.625 214.898438 107.0625 216.210938 107.53125 C 217.519531 108 218.816406 108.5 220.101562 109.035156 C 221.386719 109.566406 222.660156 110.128906 223.917969 110.722656 C 225.175781 111.320312 226.417969 111.945312 227.644531 112.601562 C 228.871094 113.257812 230.082031 113.941406 231.273438 114.65625 C 232.46875 115.371094 233.644531 116.117188 234.800781 116.890625 C 235.957031 117.664062 237.09375 118.464844 238.210938 119.292969 C 239.328125 120.121094 240.425781 120.976562 241.5 121.859375 C 242.574219 122.742188 243.628906 123.648438 244.660156 124.585938 C 245.691406 125.519531 246.699219 126.476562 247.679688 127.460938 C 248.664062 128.445312 249.625 129.453125 250.558594 130.484375 C 251.492188 131.515625 252.402344 132.566406 253.285156 133.640625 C 254.167969 134.71875 255.023438 135.8125 255.851562 136.933594 C 256.679688 138.050781 257.480469 139.1875 258.253906 140.34375 C 259.027344 141.5 259.769531 142.675781 260.484375 143.867188 C 261.199219 145.0625 261.886719 146.273438 262.542969 147.5 C 263.199219 148.726562 263.824219 149.96875 264.417969 151.226562 C 265.011719 152.484375 265.578125 153.753906 266.109375 155.039062 C 266.640625 156.324219 267.140625 157.625 267.609375 158.933594 C 268.078125 160.242188 268.515625 161.5625 268.917969 162.894531 C 269.324219 164.226562 269.695312 165.566406 270.03125 166.917969 C 270.371094 168.265625 270.675781 169.621094 270.945312 170.988281 C 271.21875 172.351562 271.457031 173.722656 271.660156 175.097656 C 271.863281 176.472656 272.035156 177.855469 272.171875 179.238281 C 272.308594 180.625 272.410156 182.011719 272.476562 183.402344 C 272.546875 184.789062 272.582031 186.179688 272.582031 187.570312 Z M 272.582031 187.570312 " fill-opacity="1" fill-rule="nonzero"/><g clip-path="url(#id2)"><path fill="#0fbcf9" d="M 262.5 187.5 C 262.5 188.726562 262.46875 189.953125 262.410156 191.179688 C 262.347656 192.40625 262.257812 193.628906 262.140625 194.851562 C 262.019531 196.074219 261.867188 197.289062 261.6875 198.503906 C 261.507812 199.71875 261.296875 200.929688 261.058594 202.132812 C 260.820312 203.335938 260.550781 204.53125 260.253906 205.722656 C 259.953125 206.914062 259.625 208.097656 259.269531 209.269531 C 258.914062 210.445312 258.527344 211.609375 258.117188 212.765625 C 257.703125 213.921875 257.261719 215.066406 256.789062 216.203125 C 256.320312 217.335938 255.824219 218.457031 255.300781 219.566406 C 254.773438 220.675781 254.222656 221.773438 253.644531 222.855469 C 253.066406 223.9375 252.460938 225.003906 251.828125 226.058594 C 251.199219 227.109375 250.542969 228.148438 249.859375 229.167969 C 249.179688 230.1875 248.472656 231.191406 247.742188 232.175781 C 247.007812 233.164062 246.253906 234.128906 245.476562 235.078125 C 244.695312 236.027344 243.894531 236.957031 243.070312 237.867188 C 242.246094 238.777344 241.402344 239.664062 240.53125 240.53125 C 239.664062 241.402344 238.777344 242.246094 237.867188 243.070312 C 236.957031 243.894531 236.027344 244.695312 235.078125 245.476562 C 234.128906 246.253906 233.164062 247.007812 232.175781 247.742188 C 231.191406 248.472656 230.1875 249.179688 229.167969 249.859375 C 228.148438 250.542969 227.109375 251.199219 226.058594 251.828125 C 225.003906 252.460938 223.9375 253.066406 222.855469 253.644531 C 221.773438 254.222656 220.675781 254.773438 219.566406 255.300781 C 218.457031 255.824219 217.335938 256.320312 216.203125 256.789062 C 215.066406 257.261719 213.921875 257.703125 212.765625 258.117188 C 211.609375 258.527344 210.445312 258.914062 209.269531 259.269531 C 208.097656 259.625 206.914062 259.953125 205.722656 260.253906 C 204.53125 260.550781 203.335938 260.820312 202.132812 261.058594 C 200.929688 261.296875 199.71875 261.507812 198.503906 261.6875 C 197.289062 261.867188 196.074219 262.019531 194.851562 262.140625 C 193.628906 262.257812 192.40625 262.347656 191.179688 262.410156 C 189.953125 262.46875 188.726562 262.5 187.5 262.5 C 186.273438 262.5 185.046875 262.46875 183.820312 262.410156 C 182.59375 262.347656 181.371094 262.257812 180.148438 262.140625 C 178.925781 262.019531 177.710938 261.867188 176.496094 261.6875 C 175.28125 261.507812 174.070312 261.296875 172.867188 261.058594 C 171.664062 260.820312 170.46875 260.550781 169.277344 260.253906 C 168.085938 259.953125 166.902344 259.625 165.730469 259.269531 C 164.554688 258.914062 163.390625 258.527344 162.234375 258.117188 C 161.078125 257.703125 159.933594 257.261719 158.796875 256.789062 C 157.664062 256.320312 156.542969 255.824219 155.433594 255.300781 C 154.324219 254.773438 153.226562 254.222656 152.144531 253.644531 C 151.0625 253.066406 149.996094 252.460938 148.941406 251.828125 C 147.890625 251.199219 146.851562 250.542969 145.832031 249.859375 C 144.8125 249.179688 143.808594 248.472656 142.824219 247.742188 C 141.835938 247.007812 140.871094 246.253906 139.921875 245.476562 C 138.972656 244.695312 138.042969 243.894531 137.132812 243.070312 C 136.222656 242.246094 135.335938 241.402344 134.46875 240.53125 C 133.597656 239.664062 132.753906 238.777344 131.929688 237.867188 C 131.105469 236.957031 130.304688 236.027344 129.523438 235.078125 C 128.746094 234.128906 127.992188 233.164062 127.257812 232.175781 C 126.527344 231.191406 125.820312 230.1875 125.140625 229.167969 C 124.457031 228.148438 123.800781 227.109375 123.171875 226.058594 C 122.539062 225.003906 121.933594 223.9375 121.355469 222.855469 C 120.777344 221.773438 120.226562 220.675781 119.699219 219.566406 C 119.175781 218.457031 118.679688 217.335938 118.210938 216.203125 C 117.738281 215.066406 117.296875 213.921875 116.882812 212.765625 C 116.46875 211.609375 116.085938 210.445312 115.730469 209.269531 C 115.375 208.097656 115.046875 206.914062 114.746094 205.722656 C 114.449219 204.53125 114.179688 203.335938 113.941406 202.132812 C 113.703125 200.929688 113.492188 199.71875 113.3125 198.503906 C 113.132812 197.289062 112.980469 196.074219 112.859375 194.851562 C 112.742188 193.628906 112.652344 192.40625 112.589844 191.179688 C 112.53125 189.953125 112.5 188.726562 112.5 187.5 C 112.5 186.273438 112.53125 185.046875 112.589844 183.820312 C 112.652344 182.59375 112.742188 181.371094 112.859375 180.148438 C 112.980469 178.925781 113.132812 177.710938 113.3125 176.496094 C 113.492188 175.28125 113.703125 174.070312 113.941406 172.867188 C 114.179688 171.664062 114.449219 170.46875 114.746094 169.277344 C 115.046875 168.085938 115.375 166.902344 115.730469 165.730469 C 116.085938 164.554688 116.46875 163.390625 116.882812 162.234375 C 117.296875 161.078125 117.738281 159.933594 118.210938 158.796875 C 118.679688 157.664062 119.175781 156.542969 119.699219 155.433594 C 120.226562 154.324219 120.777344 153.226562 121.355469 152.144531 C 121.933594 151.0625 122.539062 149.996094 123.171875 148.941406 C 123.800781 147.890625 124.457031 146.851562 125.140625 145.832031 C 125.820312 144.8125 126.527344 143.808594 127.257812 142.824219 C 127.992188 141.835938 128.746094 140.871094 129.523438 139.921875 C 130.304688 138.972656 131.105469 138.042969 131.929688 137.132812 C 132.753906 136.222656 133.597656 135.335938 134.46875 134.46875 C 135.335938 133.597656 136.222656 132.753906 137.132812 131.929688 C 138.042969 131.105469 138.972656 130.304688 139.921875 129.523438 C 140.871094 128.746094 141.835938 127.992188 142.824219 127.257812 C 143.808594 126.527344 144.8125 125.820312 145.832031 125.140625 C 146.851562 124.457031 147.890625 123.800781 148.941406 123.171875 C 149.996094 122.539062 151.0625 121.933594 152.144531 121.355469 C 153.226562 120.777344 154.324219 120.226562 155.433594 119.699219 C 156.542969 119.175781 157.664062 118.679688 158.796875 118.210938 C 159.933594 117.738281 161.078125 117.296875 162.234375 116.882812 C 163.390625 116.46875 164.554688 116.085938 165.730469 115.730469 C 166.902344 115.375 168.085938 115.046875 169.277344 114.746094 C 170.46875 114.449219 171.664062 114.179688 172.867188 113.941406 C 174.070312 113.703125 175.28125 113.492188 176.496094 113.3125 C 177.710938 113.132812 178.925781 112.980469 180.148438 112.859375 C 181.371094 112.742188 182.59375 112.652344 183.820312 112.589844 C 185.046875 112.53125 186.273438 112.5 187.5 112.5 C 188.726562 112.5 189.953125 112.53125 191.179688 112.589844 C 192.40625 112.652344 193.628906 112.742188 194.851562 112.859375 C 196.074219 112.980469 197.289062 113.132812 198.503906 113.3125 C 199.71875 113.492188 200.929688 113.703125 202.132812 113.941406 C 203.335938 114.179688 204.53125 114.449219 205.722656 114.746094 C 206.914062 115.046875 208.097656 115.375 209.269531 115.730469 C 210.445312 116.085938 211.609375 116.46875 212.765625 116.882812 C 213.921875 117.296875 215.066406 117.738281 216.203125 118.210938 C 217.335938 118.679688 218.457031 119.175781 219.566406 119.699219 C 220.675781 120.226562 221.773438 120.777344 222.855469 121.355469 C 223.9375 121.933594 225.003906 122.539062 226.058594 123.171875 C 227.109375 123.800781 228.148438 124.457031 229.167969 125.140625 C 230.1875 125.820312 231.191406 126.527344 232.175781 127.257812 C 233.164062 127.992188 234.128906 128.746094 235.078125 129.523438 C 236.027344 130.304688 236.957031 131.105469 237.867188 131.929688 C 238.777344 132.753906 239.664062 133.597656 240.53125 134.46875 C 241.402344 135.335938 242.246094 136.222656 243.070312 137.132812 C 243.894531 138.042969 244.695312 138.972656 245.476562 139.921875 C 246.253906 140.871094 247.007812 141.835938 247.742188 142.824219 C 248.472656 143.808594 249.179688 144.8125 249.859375 145.832031 C 250.542969 146.851562 251.199219 147.890625 251.828125 148.941406 C 252.460938 149.996094 253.066406 151.0625 253.644531 152.144531 C 254.222656 153.226562 254.773438 154.324219 255.300781 155.433594 C 255.824219 156.542969 256.320312 157.664062 256.789062 158.796875 C 257.261719 159.933594 257.703125 161.078125 258.117188 162.234375 C 258.527344 163.390625 258.914062 164.554688 259.269531 165.730469 C 259.625 166.902344 259.953125 168.085938 260.253906 169.277344 C 260.550781 170.46875 260.820312 171.664062 261.058594 172.867188 C 261.296875 174.070312 261.507812 175.28125 261.6875 176.496094 C 261.867188 177.710938 262.019531 178.925781 262.140625 180.148438 C 262.257812 181.371094 262.347656 182.59375 262.410156 183.820312 C 262.46875 185.046875 262.5 186.273438 262.5 187.5 Z M 262.5 187.5 " fill-opacity="1" fill-rule="nonzero"/></g><path fill="#ffffff" d="M 163.933594 151.910156 C 163.601562 151.90625 163.285156 151.984375 162.988281 152.136719 L 142.5625 162.671875 C 142.351562 162.78125 142.164062 162.925781 142 163.101562 C 141.839844 163.273438 141.710938 163.472656 141.617188 163.691406 C 141.523438 163.910156 141.46875 164.136719 141.453125 164.375 C 141.4375 164.613281 141.460938 164.847656 141.527344 165.078125 L 145.351562 178.527344 C 145.433594 178.816406 145.570312 179.074219 145.769531 179.304688 C 145.964844 179.53125 146.199219 179.710938 146.472656 179.835938 C 146.746094 179.964844 147.035156 180.027344 147.335938 180.027344 C 147.636719 180.027344 147.925781 179.964844 148.199219 179.839844 L 159.398438 174.703125 L 159.398438 220.855469 C 159.398438 221.132812 159.449219 221.394531 159.554688 221.648438 C 159.660156 221.902344 159.808594 222.125 160.003906 222.320312 C 160.199219 222.515625 160.421875 222.664062 160.675781 222.769531 C 160.929688 222.875 161.191406 222.925781 161.46875 222.925781 L 177.5 222.925781 C 177.777344 222.925781 178.039062 222.875 178.292969 222.769531 C 178.546875 222.664062 178.769531 222.515625 178.964844 222.320312 C 179.160156 222.125 179.308594 221.902344 179.414062 221.648438 C 179.519531 221.394531 179.570312 221.132812 179.570312 220.855469 L 179.570312 153.976562 C 179.570312 153.703125 179.519531 153.4375 179.414062 153.1875 C 179.308594 152.933594 179.160156 152.707031 178.964844 152.515625 C 178.769531 152.320312 178.546875 152.171875 178.292969 152.066406 C 178.039062 151.960938 177.777344 151.910156 177.5 151.910156 Z M 163.933594 151.910156 " fill-opacity="1" fill-rule="nonzero"/><path fill="#ffffff" d="M 205.207031 151.910156 C 204.871094 151.90625 204.554688 151.984375 204.257812 152.136719 L 183.832031 162.671875 C 183.621094 162.78125 183.433594 162.925781 183.273438 163.101562 C 183.109375 163.273438 182.980469 163.472656 182.886719 163.691406 C 182.792969 163.910156 182.738281 164.136719 182.722656 164.375 C 182.707031 164.613281 182.734375 164.847656 182.796875 165.078125 L 186.621094 178.527344 C 186.703125 178.816406 186.84375 179.074219 187.039062 179.304688 C 187.234375 179.53125 187.46875 179.710938 187.742188 179.835938 C 188.019531 179.964844 188.304688 180.027344 188.605469 180.027344 C 188.910156 180.027344 189.195312 179.964844 189.46875 179.839844 L 200.667969 174.703125 L 200.667969 220.855469 C 200.667969 221.132812 200.722656 221.394531 200.828125 221.648438 C 200.929688 221.902344 201.082031 222.125 201.273438 222.320312 C 201.46875 222.515625 201.691406 222.664062 201.945312 222.769531 C 202.199219 222.875 202.464844 222.925781 202.738281 222.925781 L 218.773438 222.925781 C 219.046875 222.925781 219.3125 222.875 219.5625 222.769531 C 219.816406 222.664062 220.042969 222.515625 220.234375 222.320312 C 220.429688 222.125 220.578125 221.902344 220.683594 221.648438 C 220.789062 221.394531 220.839844 221.132812 220.839844 220.855469 L 220.839844 153.976562 C 220.839844 153.703125 220.789062 153.4375 220.683594 153.1875 C 220.578125 152.933594 220.429688 152.707031 220.234375 152.515625 C 220.042969 152.320312 219.816406 152.171875 219.5625 152.066406 C 219.3125 151.960938 219.046875 151.910156 218.773438 151.910156 Z M 205.207031 151.910156 " fill-opacity="1" fill-rule="nonzero"/><g fill="#142649" fill-opacity="1"><g transform="translate(141.704118, 268.14589)"><g><path d="M -6.78125 -5 L -1.421875 -1.046875 L -10.828125 11.71875 L -25.515625 0.90625 L -23.1875 -2.25 L -13.859375 4.609375 L -12.390625 2.609375 L -20.265625 -3.1875 L -18.453125 -5.640625 L -10.578125 0.15625 Z M -6.78125 -5 "/></g></g></g><g fill="#142649" fill-opacity="1"><g transform="translate(124.767341, 255.71461)"><g><path d="M -13.484375 -15.9375 L -1.140625 -1.34375 L -13.25 8.90625 L -25.03125 -5.015625 L -22.03125 -7.546875 L -14.546875 1.296875 L -12.65625 -0.3125 L -18.984375 -7.78125 L -16.65625 -9.75 L -10.328125 -2.28125 L -8.4375 -3.890625 L -16.484375 -13.40625 Z M -13.484375 -15.9375 "/></g></g></g><g fill="#142649" fill-opacity="1"><g transform="translate(110.078769, 239.772569)"><g><path d="M -12.546875 -29.359375 L -9.921875 -23.234375 L -19.21875 -19.265625 L -7.59375 -17.78125 L -5.640625 -13.203125 L -12.609375 -3.78125 L -3.3125 -7.75 L -0.6875 -1.625 L -15.265625 4.609375 L -18.375 -2.65625 L -10.796875 -13.703125 L -24.015625 -15.84375 L -27.125 -23.125 Z M -12.546875 -29.359375 "/></g></g></g><g fill="#142649" fill-opacity="1"><g transform="translate(98.22753, 208.133522)"><g/></g></g><g fill="#142649" fill-opacity="1"><g transform="translate(95.575838, 202.536818)"><g><path d="M 0.90625 -26.703125 L 0.71875 -21.15625 L -9.71875 -17.578125 L 0.453125 -13.34375 L 0.265625 -7.796875 L -15.84375 -0.703125 L -15.609375 -7.4375 L -5.421875 -11.078125 L -15.328125 -15.671875 L -15.1875 -19.875 L -4.984375 -23.796875 L -14.90625 -28.125 L -14.6875 -34.859375 Z M 0.90625 -26.703125 "/></g></g></g><g fill="#142649" fill-opacity="1"><g transform="translate(97.63987, 168.475394)"><g><path d="M 6.890625 -19.703125 L 0.578125 -1.671875 L -14.390625 -6.90625 L -8.359375 -24.109375 L -4.65625 -22.8125 L -8.484375 -11.890625 L -6.140625 -11.078125 L -2.90625 -20.3125 L -0.03125 -19.296875 L -3.265625 -10.0625 L -0.921875 -9.25 L 3.1875 -21 Z M 6.890625 -19.703125 "/></g></g></g><g fill="#142649" fill-opacity="1"><g transform="translate(104.605938, 147.84012)"><g><path d="M 7.34375 -10.90625 L 0.984375 -1.46875 L -12.171875 -10.328125 L -5.671875 -19.96875 C -4.523438 -21.675781 -3.5 -23.023438 -2.59375 -24.015625 C -1.6875 -25.015625 -0.863281 -25.703125 -0.125 -26.078125 C 0.613281 -26.460938 1.304688 -26.585938 1.953125 -26.453125 C 2.609375 -26.316406 3.289062 -26.007812 4 -25.53125 C 4.550781 -25.144531 4.914062 -24.679688 5.09375 -24.140625 C 5.28125 -23.597656 5.332031 -23.066406 5.25 -22.546875 C 5.175781 -22.035156 5.039062 -21.632812 4.84375 -21.34375 C 5.03125 -21.632812 5.304688 -21.929688 5.671875 -22.234375 C 6.046875 -22.546875 6.460938 -22.8125 6.921875 -23.03125 C 7.378906 -23.257812 7.84375 -23.390625 8.3125 -23.421875 C 8.789062 -23.460938 9.222656 -23.351562 9.609375 -23.09375 C 10.128906 -22.738281 10.5625 -22.359375 10.90625 -21.953125 C 11.25 -21.546875 11.460938 -21.050781 11.546875 -20.46875 C 11.640625 -19.882812 11.566406 -19.171875 11.328125 -18.328125 C 11.085938 -17.484375 10.644531 -16.453125 10 -15.234375 C 9.363281 -14.023438 8.476562 -12.582031 7.34375 -10.90625 Z M -0.578125 -15.78125 C -0.0234375 -16.59375 0.359375 -17.242188 0.578125 -17.734375 C 0.796875 -18.222656 0.878906 -18.609375 0.828125 -18.890625 C 0.785156 -19.171875 0.640625 -19.394531 0.390625 -19.5625 C 0.128906 -19.738281 -0.132812 -19.796875 -0.40625 -19.734375 C -0.6875 -19.671875 -1.015625 -19.445312 -1.390625 -19.0625 C -1.765625 -18.675781 -2.226562 -18.078125 -2.78125 -17.265625 L -5.203125 -13.65625 L -3 -12.171875 Z M 3.890625 -12.78125 C 4.453125 -13.601562 4.882812 -14.285156 5.1875 -14.828125 C 5.488281 -15.367188 5.640625 -15.8125 5.640625 -16.15625 C 5.648438 -16.5 5.484375 -16.785156 5.140625 -17.015625 C 4.796875 -17.253906 4.46875 -17.304688 4.15625 -17.171875 C 3.84375 -17.035156 3.492188 -16.722656 3.109375 -16.234375 C 2.722656 -15.742188 2.25 -15.085938 1.6875 -14.265625 L -0.734375 -10.65625 L 1.46875 -9.171875 Z M 3.890625 -12.78125 "/></g></g></g><g fill="#142649" fill-opacity="1"><g transform="translate(119.01015, 126.956056)"><g><path d="M 8.078125 -6.703125 C 6.472656 -5.285156 5.023438 -4.3125 3.734375 -3.78125 C 2.441406 -3.25 1.269531 -3.054688 0.21875 -3.203125 C -0.820312 -3.347656 -1.78125 -3.742188 -2.65625 -4.390625 L 2.625 -9.078125 C 3.519531 -8.847656 4.394531 -9.113281 5.25 -9.875 C 6.101562 -10.632812 6.476562 -11.472656 6.375 -12.390625 C 6.351562 -12.472656 6.328125 -12.535156 6.296875 -12.578125 C 6.160156 -12.722656 5.859375 -12.660156 5.390625 -12.390625 C 4.929688 -12.117188 4.296875 -11.65625 3.484375 -11 C 2.453125 -10.15625 1.320312 -9.335938 0.09375 -8.546875 C -2.65625 -6.785156 -4.726562 -6.6875 -6.125 -8.25 C -6.238281 -8.382812 -6.351562 -8.53125 -6.46875 -8.6875 C -6.988281 -9.632812 -7.257812 -10.632812 -7.28125 -11.6875 C -7.3125 -12.75 -6.988281 -13.890625 -6.3125 -15.109375 C -5.632812 -16.328125 -4.492188 -17.644531 -2.890625 -19.0625 C -1.285156 -20.488281 0.15625 -21.460938 1.4375 -21.984375 C 2.726562 -22.503906 3.898438 -22.691406 4.953125 -22.546875 C 6.003906 -22.398438 6.96875 -22.007812 7.84375 -21.375 L 2.5625 -16.6875 C 1.664062 -16.90625 0.789062 -16.632812 -0.0625 -15.875 C -0.914062 -15.113281 -1.289062 -14.28125 -1.1875 -13.375 C -1.1875 -13.300781 -1.171875 -13.25 -1.140625 -13.21875 C -1.023438 -13.082031 -0.742188 -13.148438 -0.296875 -13.421875 C 0.140625 -13.691406 0.742188 -14.128906 1.515625 -14.734375 C 2.285156 -15.347656 3.128906 -15.972656 4.046875 -16.609375 C 4.972656 -17.253906 5.90625 -17.773438 6.84375 -18.171875 C 7.789062 -18.578125 8.679688 -18.71875 9.515625 -18.59375 C 10.160156 -18.5 10.734375 -18.171875 11.234375 -17.609375 C 11.378906 -17.441406 11.519531 -17.265625 11.65625 -17.078125 C 12.175781 -16.117188 12.445312 -15.109375 12.46875 -14.046875 C 12.488281 -12.992188 12.160156 -11.863281 11.484375 -10.65625 C 10.816406 -9.445312 9.679688 -8.128906 8.078125 -6.703125 Z M 8.078125 -6.703125 "/></g></g></g><g fill="#142649" fill-opacity="1"><g transform="translate(135.375195, 113.126757)"><g><path d="M 7.171875 -4.40625 L 1.5 -0.921875 L -6.796875 -14.4375 L -1.125 -17.921875 Z M 7.171875 -4.40625 "/></g></g></g><g fill="#142649" fill-opacity="1"><g transform="translate(144.313605, 107.178298)"><g><path d="M 12.578125 -4.984375 L 6.390625 -2.53125 L 1.984375 -13.625 L -3.796875 -11.328125 L -5.234375 -14.96875 L 12.515625 -22.015625 L 13.953125 -18.375 L 8.171875 -16.078125 Z M 12.578125 -4.984375 "/></g></g></g><g fill="#142649" fill-opacity="1"><g transform="translate(163.393676, 99.544141)"><g><path d="M 20.65625 -3.046875 L 1.75 -0.25 L -0.5625 -15.9375 L 17.46875 -18.609375 L 18.03125 -14.734375 L 6.578125 -13.046875 L 6.953125 -10.59375 L 16.640625 -12.015625 L 17.078125 -9 L 7.390625 -7.578125 L 7.75 -5.109375 L 20.078125 -6.921875 Z M 20.65625 -3.046875 "/></g></g></g><g fill="#142649" fill-opacity="1"><g transform="translate(185.03602, 96.408332)"><g><path d="M 10.40625 1.265625 C 8.269531 1.078125 6.566406 0.691406 5.296875 0.109375 C 4.035156 -0.460938 3.097656 -1.175781 2.484375 -2.03125 C 1.867188 -2.894531 1.492188 -3.867188 1.359375 -4.953125 L 8.390625 -4.328125 C 8.847656 -3.523438 9.644531 -3.070312 10.78125 -2.96875 C 11.914062 -2.875 12.78125 -3.179688 13.375 -3.890625 C 13.425781 -3.960938 13.453125 -4.023438 13.453125 -4.078125 C 13.472656 -4.273438 13.222656 -4.445312 12.703125 -4.59375 C 12.191406 -4.75 11.414062 -4.898438 10.375 -5.046875 C 9.070312 -5.210938 7.703125 -5.460938 6.265625 -5.796875 C 3.097656 -6.585938 1.601562 -8.023438 1.78125 -10.109375 C 1.800781 -10.285156 1.828125 -10.472656 1.859375 -10.671875 C 2.179688 -11.703125 2.71875 -12.585938 3.46875 -13.328125 C 4.226562 -14.066406 5.28125 -14.609375 6.625 -14.953125 C 7.976562 -15.304688 9.722656 -15.390625 11.859375 -15.203125 C 14.003906 -15.015625 15.707031 -14.628906 16.96875 -14.046875 C 18.226562 -13.472656 19.160156 -12.753906 19.765625 -11.890625 C 20.378906 -11.035156 20.757812 -10.070312 20.90625 -9 L 13.875 -9.609375 C 13.414062 -10.410156 12.617188 -10.859375 11.484375 -10.953125 C 10.347656 -11.054688 9.484375 -10.753906 8.890625 -10.046875 C 8.847656 -10.003906 8.828125 -9.957031 8.828125 -9.90625 C 8.804688 -9.726562 9.046875 -9.570312 9.546875 -9.4375 C 10.046875 -9.3125 10.78125 -9.175781 11.75 -9.03125 C 12.726562 -8.894531 13.765625 -8.710938 14.859375 -8.484375 C 15.953125 -8.253906 16.96875 -7.929688 17.90625 -7.515625 C 18.84375 -7.109375 19.550781 -6.554688 20.03125 -5.859375 C 20.414062 -5.335938 20.578125 -4.703125 20.515625 -3.953125 C 20.492188 -3.734375 20.457031 -3.507812 20.40625 -3.28125 C 20.070312 -2.238281 19.53125 -1.347656 18.78125 -0.609375 C 18.03125 0.128906 16.984375 0.671875 15.640625 1.015625 C 14.296875 1.367188 12.550781 1.453125 10.40625 1.265625 Z M 10.40625 1.265625 "/></g></g></g><g fill="#142649" fill-opacity="1"><g transform="translate(206.467097, 98.92105)"><g/></g></g><g fill="#142649" fill-opacity="1"><g transform="translate(212.674276, 99.712698)"><g><path d="M 10.890625 5.046875 C 7.273438 3.492188 4.945312 1.613281 3.90625 -0.59375 C 2.957031 -2.539062 2.96875 -4.648438 3.9375 -6.921875 C 4.914062 -9.191406 6.441406 -10.660156 8.515625 -11.328125 C 10.835938 -12.078125 13.804688 -11.675781 17.421875 -10.125 C 19.523438 -9.21875 21.160156 -8.222656 22.328125 -7.140625 C 23.503906 -6.066406 24.289062 -4.941406 24.6875 -3.765625 C 25.09375 -2.597656 25.191406 -1.421875 24.984375 -0.234375 L 18.5625 -3 C 18.394531 -4.40625 17.453125 -5.476562 15.734375 -6.21875 C 14.242188 -6.851562 12.972656 -6.890625 11.921875 -6.328125 C 11.078125 -5.898438 10.457031 -5.222656 10.0625 -4.296875 C 9.664062 -3.367188 9.597656 -2.441406 9.859375 -1.515625 C 10.179688 -0.378906 11.085938 0.503906 12.578125 1.140625 C 14.296875 1.878906 15.722656 1.820312 16.859375 0.96875 L 23.28125 3.734375 C 22.5625 4.710938 21.632812 5.457031 20.5 5.96875 C 19.375 6.476562 18.015625 6.675781 16.421875 6.5625 C 14.835938 6.457031 12.992188 5.953125 10.890625 5.046875 Z M 10.890625 5.046875 "/></g></g></g><g fill="#142649" fill-opacity="1"><g transform="translate(234.476796, 109.058615)"><g><path d="M 9.21875 7.671875 C 6.132812 5.242188 4.363281 2.828125 3.90625 0.421875 C 3.507812 -1.703125 4.070312 -3.738281 5.59375 -5.6875 C 7.113281 -7.625 8.957031 -8.648438 11.125 -8.765625 C 13.570312 -8.898438 16.335938 -7.753906 19.421875 -5.328125 C 22.503906 -2.910156 24.28125 -0.492188 24.75 1.921875 C 25.15625 4.054688 24.597656 6.09375 23.078125 8.03125 C 21.554688 9.976562 19.707031 11.003906 17.53125 11.109375 C 15.070312 11.234375 12.300781 10.085938 9.21875 7.671875 Z M 11.84375 4.328125 C 13.101562 5.316406 14.316406 5.679688 15.484375 5.421875 C 16.421875 5.203125 17.203125 4.695312 17.828125 3.90625 C 18.453125 3.113281 18.753906 2.242188 18.734375 1.296875 C 18.710938 0.0976562 18.070312 -0.992188 16.8125 -1.984375 C 15.539062 -2.984375 14.328125 -3.347656 13.171875 -3.078125 C 12.234375 -2.867188 11.453125 -2.367188 10.828125 -1.578125 C 10.203125 -0.785156 9.898438 0.0859375 9.921875 1.046875 C 9.929688 2.234375 10.570312 3.328125 11.84375 4.328125 Z M 11.84375 4.328125 "/></g></g></g><g fill="#142649" fill-opacity="1"><g transform="translate(253.70067, 123.142855)"><g><path d="M 17.90625 26.421875 L 14.171875 20.921875 L 22.546875 15.25 L 10.84375 16 L 8.0625 11.890625 L 13.09375 1.296875 L 4.71875 6.96875 L 0.984375 1.46875 L 14.109375 -7.421875 L 18.546875 -0.890625 L 13.203125 11.390625 L 26.59375 10.984375 L 31.03125 17.53125 Z M 17.90625 26.421875 "/></g></g></g><g fill="#142649" fill-opacity="1"><g transform="translate(271.818432, 151.077754)"><g><path d="M 2.359375 8.078125 L 0.5 1.6875 L 15.71875 -2.765625 L 18.75 7.640625 C 19.476562 10.117188 19.878906 12.171875 19.953125 13.796875 C 20.023438 15.429688 19.765625 16.71875 19.171875 17.65625 C 18.585938 18.59375 17.65625 19.25 16.375 19.625 C 15.09375 20 13.953125 19.945312 12.953125 19.46875 C 11.953125 19 11.046875 18.054688 10.234375 16.640625 C 9.421875 15.234375 8.648438 13.289062 7.921875 10.8125 L 6.75 6.796875 Z M 10.5 5.703125 L 11.59375 9.359375 C 11.882812 10.367188 12.15625 11.15625 12.40625 11.71875 C 12.664062 12.289062 12.910156 12.695312 13.140625 12.9375 C 13.367188 13.175781 13.59375 13.300781 13.8125 13.3125 C 14.039062 13.320312 14.273438 13.296875 14.515625 13.234375 C 14.753906 13.160156 14.960938 13.054688 15.140625 12.921875 C 15.316406 12.796875 15.4375 12.566406 15.5 12.234375 C 15.570312 11.910156 15.5625 11.441406 15.46875 10.828125 C 15.375 10.222656 15.179688 9.414062 14.890625 8.40625 L 13.8125 4.734375 Z M 10.5 5.703125 "/></g></g></g><g fill="#142649" fill-opacity="1"><g transform="translate(278.426504, 174.496572)"><g><path d="M 0.78125 20.265625 L 0.0625 1.765625 L 15.90625 1.15625 L 16.171875 7.8125 L 4.25 8.265625 L 4.703125 20.109375 Z M 0.78125 20.265625 "/></g></g></g><g fill="#142649" fill-opacity="1"><g transform="translate(279.278096, 195.335702)"><g><path d="M -4.03125 20.484375 L -0.34375 1.734375 L 15.21875 4.796875 L 11.703125 22.6875 L 7.859375 21.921875 L 10.09375 10.5625 L 7.65625 10.09375 L 5.765625 19.6875 L 2.765625 19.09375 L 4.65625 9.5 L 2.21875 9.015625 L -0.1875 21.234375 Z M -4.03125 20.484375 "/></g></g></g><g fill="#142649" fill-opacity="1"><g transform="translate(274.955835, 216.792968)"><g><path d="M -5.578125 12.328125 L -2.84375 6.265625 L 8.03125 11.1875 L 10.609375 5.515625 L 14.1875 7.140625 L 6.296875 24.53125 L 2.71875 22.90625 L 5.296875 17.25 Z M -5.578125 12.328125 "/></g></g></g><g fill="#142649" fill-opacity="1"><g transform="translate(266.539467, 235.533122)"><g><path d="M -12.734375 16.53125 L -1.078125 1.40625 L 11.484375 11.09375 L 0.359375 25.53125 L -2.75 23.125 L 4.3125 13.953125 L 2.34375 12.4375 L -3.625 20.1875 L -6.03125 18.328125 L -0.0625 10.578125 L -2.03125 9.0625 L -9.625 18.921875 Z M -12.734375 16.53125 "/></g></g></g><g fill="#142649" fill-opacity="1"><g transform="translate(253.426367, 252.926466)"><g><path d="M -9.796875 7.5625 L -1.390625 1.078125 L 8.3125 13.625 L -0.09375 20.109375 C -3.53125 22.765625 -6.367188 24.195312 -8.609375 24.40625 C -10.429688 24.5625 -11.941406 24.035156 -13.140625 22.828125 C -13.671875 22.316406 -14.144531 21.789062 -14.5625 21.25 C -14.96875 20.726562 -15.351562 20.144531 -15.71875 19.5 C -16.09375 18.863281 -16.332031 18.148438 -16.4375 17.359375 C -16.539062 16.578125 -16.421875 15.703125 -16.078125 14.734375 C -15.734375 13.773438 -15.066406 12.703125 -14.078125 11.515625 C -13.085938 10.328125 -11.660156 9.007812 -9.796875 7.5625 Z M -6.90625 10.296875 C -9.582031 12.359375 -10.566406 14.195312 -9.859375 15.8125 C -9.671875 16.269531 -9.429688 16.6875 -9.140625 17.0625 C -8.835938 17.445312 -8.492188 17.789062 -8.109375 18.09375 C -7.722656 18.394531 -7.253906 18.582031 -6.703125 18.65625 C -6.160156 18.726562 -5.503906 18.613281 -4.734375 18.3125 C -3.960938 18.007812 -3.050781 17.453125 -2 16.640625 L 0.625 14.609375 L -4.28125 8.265625 Z M -6.90625 10.296875 "/></g></g></g></svg>